<mxfile host="app.diagrams.net" modified="2023-05-01T22:09:12.529Z" agent="Mozilla/5.0 (Windows NT 10.0; Win64; x64) AppleWebKit/537.36 (KHTML, like Gecko) Chrome/112.0.0.0 Safari/537.36" version="21.2.3" etag="SIw67C4DjwyMEaW-0DjT" type="github">
  <diagram name="Страница 1" id="ax5tsOrVmF7I-cowyZEB">
    <mxGraphModel>
      <root>
        <mxCell id="0" />
        <mxCell id="1" parent="0" />
      </root>
    </mxGraphModel>
  </diagram>
</mxfile>
